<svg id="pouce" xmlns="http://www.w3.org/2000/svg" width="31.255" height="31.255" viewBox="0 0 31.255 31.255">
  <path id="Tracé_3" data-name="Tracé 3" d="M2810.378,2765.838h4.167v-2.083h-4.167v-12.5h2.084v-2.084h-2.084v-2.084H2799.96v20.837h10.418Zm-2.083,0h-6.251v-16.669h6.251Z" transform="translate(-2799.96 -2736.667)" fill="#fff"/>
  <path id="Tracé_4" data-name="Tracé 4" d="M2932.213,2736.151h-2.084v2.084h8.335v-2.084H2934.3v-2.083h-2.084Z" transform="translate(-2909.293 -2725.733)" fill="#fff"/>
  <path id="Tracé_5" data-name="Tracé 5" d="M2919.2,2684.083h4.167V2682h-6.251v6.251h2.083Z" transform="translate(-2898.36 -2682)" fill="#fff"/>
  <rect id="Rectangle_526" data-name="Rectangle 526" width="2.084" height="2.084" transform="translate(4.167 25.004)" fill="#fff"/>
  <rect id="Rectangle_527" data-name="Rectangle 527" width="2.084" height="2.084" transform="translate(27.087 16.669)" fill="#fff"/>
  <rect id="Rectangle_528" data-name="Rectangle 528" width="2.084" height="4.167" transform="translate(16.669 6.251)" fill="#fff"/>
  <rect id="Rectangle_529" data-name="Rectangle 529" width="2.084" height="2.084" transform="translate(27.087 22.92)" fill="#fff"/>
  <rect id="Rectangle_530" data-name="Rectangle 530" width="4.167" height="2.084" transform="translate(12.502 10.418)" fill="#fff"/>
  <rect id="Rectangle_531" data-name="Rectangle 531" width="2.084" height="4.167" transform="translate(29.171 12.502)" fill="#fff"/>
  <rect id="Rectangle_532" data-name="Rectangle 532" width="2.084" height="6.251" transform="translate(25.004 2.084)" fill="#fff"/>
  <rect id="Rectangle_533" data-name="Rectangle 533" width="14.586" height="2.084" transform="translate(14.585 29.171)" fill="#fff"/>
  <rect id="Rectangle_534" data-name="Rectangle 534" width="2.084" height="4.167" transform="translate(29.171 25.004)" fill="#fff"/>
  <rect id="Rectangle_535" data-name="Rectangle 535" width="2.084" height="4.167" transform="translate(29.171 18.753)" fill="#fff"/>
</svg>
