<svg id="skull" xmlns="http://www.w3.org/2000/svg" width="29.5" height="27.041" viewBox="0 0 29.5 27.041">
  <rect id="Rectangle_428" data-name="Rectangle 428" width="2.459" height="2.458" transform="translate(27.041 14.75)" fill="#ebeff7"/>
  <rect id="Rectangle_429" data-name="Rectangle 429" width="2.459" height="2.458" transform="translate(27.041 12.292)" fill="#ebeff7"/>
  <rect id="Rectangle_430" data-name="Rectangle 430" width="2.459" height="2.458" transform="translate(27.041 9.833)" fill="#ebeff7"/>
  <rect id="Rectangle_431" data-name="Rectangle 431" width="2.459" height="2.459" transform="translate(27.041 7.374)" fill="#ebeff7"/>
  <rect id="Rectangle_432" data-name="Rectangle 432" width="2.458" height="2.459" transform="translate(24.583 17.208)" fill="#ebeff7"/>
  <rect id="Rectangle_433" data-name="Rectangle 433" width="2.458" height="2.458" transform="translate(24.583 14.75)" fill="#ebeff7"/>
  <rect id="Rectangle_434" data-name="Rectangle 434" width="2.458" height="2.458" transform="translate(24.583 12.292)" fill="#ebeff7"/>
  <rect id="Rectangle_435" data-name="Rectangle 435" width="2.458" height="2.458" transform="translate(24.583 9.833)" fill="#ebeff7"/>
  <rect id="Rectangle_436" data-name="Rectangle 436" width="2.458" height="2.459" transform="translate(24.583 7.374)" fill="#ebeff7"/>
  <rect id="Rectangle_437" data-name="Rectangle 437" width="2.458" height="2.458" transform="translate(24.583 4.916)" fill="#ebeff7"/>
  <rect id="Rectangle_438" data-name="Rectangle 438" width="2.458" height="2.458" transform="translate(24.583 2.458)" fill="#ebeff7"/>
  <rect id="Rectangle_439" data-name="Rectangle 439" width="2.458" height="2.459" transform="translate(22.125 17.208)" fill="#ebeff7"/>
  <rect id="Rectangle_440" data-name="Rectangle 440" width="2.458" height="2.458" transform="translate(22.125 14.75)" fill="#ebeff7"/>
  <rect id="Rectangle_441" data-name="Rectangle 441" width="2.458" height="2.458" transform="translate(22.125 12.292)" fill="#ebeff7"/>
  <rect id="Rectangle_442" data-name="Rectangle 442" width="2.458" height="2.458" transform="translate(22.125 9.833)" fill="#ebeff7"/>
  <rect id="Rectangle_443" data-name="Rectangle 443" width="2.458" height="2.459" transform="translate(22.125 7.374)" fill="#ebeff7"/>
  <rect id="Rectangle_444" data-name="Rectangle 444" width="2.458" height="2.458" transform="translate(22.125 4.916)" fill="#ebeff7"/>
  <rect id="Rectangle_445" data-name="Rectangle 445" width="2.458" height="2.458" transform="translate(22.125 2.458)" fill="#ebeff7"/>
  <rect id="Rectangle_446" data-name="Rectangle 446" width="2.458" height="2.458" transform="translate(22.125)" fill="#ebeff7"/>
  <rect id="Rectangle_447" data-name="Rectangle 447" width="2.458" height="2.458" transform="translate(19.667 24.583)" fill="#ebeff7"/>
  <rect id="Rectangle_448" data-name="Rectangle 448" width="2.458" height="2.458" transform="translate(19.667 22.125)" fill="#ebeff7"/>
  <rect id="Rectangle_449" data-name="Rectangle 449" width="2.458" height="2.458" transform="translate(19.667 19.667)" fill="#ebeff7"/>
  <rect id="Rectangle_450" data-name="Rectangle 450" width="2.458" height="2.459" transform="translate(19.667 17.208)" fill="#ebeff7"/>
  <rect id="Rectangle_451" data-name="Rectangle 451" width="2.458" height="2.458" transform="translate(19.667 14.75)" fill="#ebeff7"/>
  <rect id="Rectangle_452" data-name="Rectangle 452" width="2.458" height="2.458" transform="translate(19.667 12.292)" fill="#ebeff7"/>
  <rect id="Rectangle_453" data-name="Rectangle 453" width="2.458" height="2.458" transform="translate(19.667 9.833)" fill="#ebeff7"/>
  <rect id="Rectangle_454" data-name="Rectangle 454" width="2.458" height="2.459" transform="translate(19.667 7.374)" fill="#ebeff7"/>
  <rect id="Rectangle_455" data-name="Rectangle 455" width="2.458" height="2.458" transform="translate(19.667 4.916)" fill="#ebeff7"/>
  <rect id="Rectangle_456" data-name="Rectangle 456" width="2.458" height="2.458" transform="translate(19.667 2.458)" fill="#ebeff7"/>
  <rect id="Rectangle_457" data-name="Rectangle 457" width="2.458" height="2.458" transform="translate(19.667)" fill="#ebeff7"/>
  <rect id="Rectangle_458" data-name="Rectangle 458" width="2.459" height="2.458" transform="translate(17.208 24.583)" fill="#ebeff7"/>
  <rect id="Rectangle_459" data-name="Rectangle 459" width="2.459" height="2.458" transform="translate(17.208 22.125)" fill="#ebeff7"/>
  <rect id="Rectangle_460" data-name="Rectangle 460" width="2.459" height="2.458" transform="translate(17.208 19.667)" fill="#ebeff7"/>
  <rect id="Rectangle_461" data-name="Rectangle 461" width="2.459" height="2.459" transform="translate(17.208 17.208)" fill="#ebeff7"/>
  <rect id="Rectangle_462" data-name="Rectangle 462" width="2.459" height="2.458" transform="translate(17.208 14.75)" fill="#ebeff7"/>
  <rect id="Rectangle_463" data-name="Rectangle 463" width="2.459" height="2.458" transform="translate(17.208 12.292)" fill="#ebeff7"/>
  <rect id="Rectangle_464" data-name="Rectangle 464" width="2.459" height="2.458" transform="translate(17.208 9.833)" fill="#ebeff7"/>
  <rect id="Rectangle_465" data-name="Rectangle 465" width="2.459" height="2.459" transform="translate(17.208 7.374)" fill="#ebeff7"/>
  <rect id="Rectangle_466" data-name="Rectangle 466" width="2.459" height="2.458" transform="translate(17.208 4.916)" fill="#ebeff7"/>
  <rect id="Rectangle_467" data-name="Rectangle 467" width="2.459" height="2.458" transform="translate(17.208 2.458)" fill="#ebeff7"/>
  <rect id="Rectangle_468" data-name="Rectangle 468" width="2.459" height="2.458" transform="translate(17.208)" fill="#ebeff7"/>
  <rect id="Rectangle_469" data-name="Rectangle 469" width="2.458" height="2.458" transform="translate(14.75 22.125)" fill="#ebeff7"/>
  <rect id="Rectangle_470" data-name="Rectangle 470" width="2.458" height="2.458" transform="translate(14.75 19.667)" fill="#ebeff7"/>
  <rect id="Rectangle_471" data-name="Rectangle 471" width="2.458" height="2.459" transform="translate(14.75 17.208)" fill="#ebeff7"/>
  <rect id="Rectangle_472" data-name="Rectangle 472" width="2.458" height="2.458" transform="translate(14.75 9.833)" fill="#ebeff7"/>
  <rect id="Rectangle_473" data-name="Rectangle 473" width="2.458" height="2.459" transform="translate(14.75 7.374)" fill="#ebeff7"/>
  <rect id="Rectangle_474" data-name="Rectangle 474" width="2.458" height="2.458" transform="translate(14.75 4.916)" fill="#ebeff7"/>
  <rect id="Rectangle_475" data-name="Rectangle 475" width="2.458" height="2.458" transform="translate(14.75 2.458)" fill="#ebeff7"/>
  <rect id="Rectangle_476" data-name="Rectangle 476" width="2.458" height="2.458" transform="translate(14.75)" fill="#ebeff7"/>
  <rect id="Rectangle_477" data-name="Rectangle 477" width="2.458" height="2.458" transform="translate(12.292 24.583)" fill="#ebeff7"/>
  <rect id="Rectangle_478" data-name="Rectangle 478" width="2.458" height="2.458" transform="translate(12.292 22.125)" fill="#ebeff7"/>
  <rect id="Rectangle_479" data-name="Rectangle 479" width="2.458" height="2.458" transform="translate(12.292 19.667)" fill="#ebeff7"/>
  <rect id="Rectangle_480" data-name="Rectangle 480" width="2.458" height="2.459" transform="translate(12.292 17.208)" fill="#ebeff7"/>
  <rect id="Rectangle_481" data-name="Rectangle 481" width="2.458" height="2.458" transform="translate(12.292 9.833)" fill="#ebeff7"/>
  <rect id="Rectangle_482" data-name="Rectangle 482" width="2.458" height="2.459" transform="translate(12.292 7.374)" fill="#ebeff7"/>
  <rect id="Rectangle_483" data-name="Rectangle 483" width="2.458" height="2.458" transform="translate(12.292 4.916)" fill="#ebeff7"/>
  <rect id="Rectangle_484" data-name="Rectangle 484" width="2.458" height="2.458" transform="translate(12.292 2.458)" fill="#ebeff7"/>
  <rect id="Rectangle_485" data-name="Rectangle 485" width="2.458" height="2.458" transform="translate(12.292)" fill="#ebeff7"/>
  <rect id="Rectangle_486" data-name="Rectangle 486" width="2.458" height="2.458" transform="translate(9.833 22.125)" fill="#ebeff7"/>
  <rect id="Rectangle_487" data-name="Rectangle 487" width="2.458" height="2.459" transform="translate(9.833 17.208)" fill="#ebeff7"/>
  <rect id="Rectangle_488" data-name="Rectangle 488" width="2.458" height="2.458" transform="translate(9.833 14.75)" fill="#ebeff7"/>
  <rect id="Rectangle_489" data-name="Rectangle 489" width="2.458" height="2.458" transform="translate(9.833 12.292)" fill="#ebeff7"/>
  <rect id="Rectangle_490" data-name="Rectangle 490" width="2.458" height="2.458" transform="translate(9.833 9.833)" fill="#ebeff7"/>
  <rect id="Rectangle_491" data-name="Rectangle 491" width="2.458" height="2.459" transform="translate(9.833 7.374)" fill="#ebeff7"/>
  <rect id="Rectangle_492" data-name="Rectangle 492" width="2.458" height="2.458" transform="translate(9.833 4.916)" fill="#ebeff7"/>
  <rect id="Rectangle_493" data-name="Rectangle 493" width="2.458" height="2.458" transform="translate(9.833 2.458)" fill="#ebeff7"/>
  <rect id="Rectangle_494" data-name="Rectangle 494" width="2.458" height="2.458" transform="translate(9.833)" fill="#ebeff7"/>
  <rect id="Rectangle_495" data-name="Rectangle 495" width="2.459" height="2.458" transform="translate(7.375 24.583)" fill="#ebeff7"/>
  <rect id="Rectangle_496" data-name="Rectangle 496" width="2.459" height="2.458" transform="translate(7.375 22.125)" fill="#ebeff7"/>
  <rect id="Rectangle_497" data-name="Rectangle 497" width="2.459" height="2.458" transform="translate(7.375 19.667)" fill="#ebeff7"/>
  <rect id="Rectangle_498" data-name="Rectangle 498" width="2.459" height="2.459" transform="translate(7.375 17.208)" fill="#ebeff7"/>
  <rect id="Rectangle_499" data-name="Rectangle 499" width="2.459" height="2.458" transform="translate(7.375 14.75)" fill="#ebeff7"/>
  <rect id="Rectangle_500" data-name="Rectangle 500" width="2.459" height="2.458" transform="translate(7.375 12.292)" fill="#ebeff7"/>
  <rect id="Rectangle_501" data-name="Rectangle 501" width="2.459" height="2.458" transform="translate(7.375 9.833)" fill="#ebeff7"/>
  <rect id="Rectangle_502" data-name="Rectangle 502" width="2.459" height="2.459" transform="translate(7.375 7.374)" fill="#ebeff7"/>
  <rect id="Rectangle_503" data-name="Rectangle 503" width="2.459" height="2.458" transform="translate(7.375 4.916)" fill="#ebeff7"/>
  <rect id="Rectangle_504" data-name="Rectangle 504" width="2.459" height="2.458" transform="translate(7.375 2.458)" fill="#ebeff7"/>
  <rect id="Rectangle_505" data-name="Rectangle 505" width="2.459" height="2.458" transform="translate(7.375)" fill="#ebeff7"/>
  <rect id="Rectangle_506" data-name="Rectangle 506" width="2.458" height="2.458" transform="translate(4.916 22.125)" fill="#ebeff7"/>
  <rect id="Rectangle_507" data-name="Rectangle 507" width="2.458" height="2.459" transform="translate(4.916 17.208)" fill="#ebeff7"/>
  <rect id="Rectangle_508" data-name="Rectangle 508" width="2.458" height="2.458" transform="translate(4.916 9.833)" fill="#ebeff7"/>
  <rect id="Rectangle_509" data-name="Rectangle 509" width="2.458" height="2.459" transform="translate(4.916 7.374)" fill="#ebeff7"/>
  <rect id="Rectangle_510" data-name="Rectangle 510" width="2.458" height="2.458" transform="translate(4.916 4.916)" fill="#ebeff7"/>
  <rect id="Rectangle_511" data-name="Rectangle 511" width="2.458" height="2.458" transform="translate(4.916 2.458)" fill="#ebeff7"/>
  <rect id="Rectangle_512" data-name="Rectangle 512" width="2.458" height="2.458" transform="translate(2.458 24.583)" fill="#ebeff7"/>
  <rect id="Rectangle_513" data-name="Rectangle 513" width="2.458" height="2.458" transform="translate(2.458 22.125)" fill="#ebeff7"/>
  <rect id="Rectangle_514" data-name="Rectangle 514" width="2.458" height="2.458" transform="translate(2.458 19.667)" fill="#ebeff7"/>
  <rect id="Rectangle_515" data-name="Rectangle 515" width="2.458" height="2.459" transform="translate(2.458 17.208)" fill="#ebeff7"/>
  <rect id="Rectangle_516" data-name="Rectangle 516" width="2.458" height="2.458" transform="translate(2.458 9.833)" fill="#ebeff7"/>
  <rect id="Rectangle_517" data-name="Rectangle 517" width="2.458" height="2.459" transform="translate(2.458 7.374)" fill="#ebeff7"/>
  <rect id="Rectangle_518" data-name="Rectangle 518" width="2.458" height="2.458" transform="translate(2.458 4.916)" fill="#ebeff7"/>
  <rect id="Rectangle_519" data-name="Rectangle 519" width="2.458" height="2.458" transform="translate(2.458 2.458)" fill="#ebeff7"/>
  <rect id="Rectangle_520" data-name="Rectangle 520" width="2.458" height="2.459" transform="translate(0 17.208)" fill="#ebeff7"/>
  <rect id="Rectangle_521" data-name="Rectangle 521" width="2.458" height="2.458" transform="translate(0 14.75)" fill="#ebeff7"/>
  <rect id="Rectangle_522" data-name="Rectangle 522" width="2.458" height="2.458" transform="translate(0 12.292)" fill="#ebeff7"/>
  <rect id="Rectangle_523" data-name="Rectangle 523" width="2.458" height="2.458" transform="translate(0 9.833)" fill="#ebeff7"/>
  <rect id="Rectangle_524" data-name="Rectangle 524" width="2.458" height="2.459" transform="translate(0 7.374)" fill="#ebeff7"/>
  <rect id="Rectangle_525" data-name="Rectangle 525" width="2.458" height="2.458" transform="translate(0 4.916)" fill="#ebeff7"/>
</svg>
